<?xml version="1.0" encoding="UTF-8" standalone="no"?>
<svg
   xmlns:dc="http://purl.org/dc/elements/1.1/"
   xmlns:cc="http://creativecommons.org/ns#"
   xmlns:rdf="http://www.w3.org/1999/02/22-rdf-syntax-ns#"
   xmlns:svg="http://www.w3.org/2000/svg"
   xmlns="http://www.w3.org/2000/svg"
   xmlns:sodipodi="http://sodipodi.sourceforge.net/DTD/sodipodi-0.dtd"
   xmlns:inkscape="http://www.inkscape.org/namespaces/inkscape"
   width="400mm"
   height="120mm"
   viewBox="0 0 400 120"
   version="1.1"
   id="svg8"
   inkscape:version="1.0.2 (1.0.2+r75+1)"
   sodipodi:docname="counterplots_logo.svg">
  <defs
     id="defs2" />
  <sodipodi:namedview
     id="base"
     pagecolor="#ffffff"
     bordercolor="#666666"
     borderopacity="1.0"
     inkscape:pageopacity="0.0"
     inkscape:pageshadow="2"
     inkscape:zoom="0.33886364"
     inkscape:cx="737.47794"
     inkscape:cy="-290.05477"
     inkscape:document-units="mm"
     inkscape:current-layer="layer1"
     inkscape:document-rotation="0"
     showgrid="false"
     inkscape:window-width="1853"
     inkscape:window-height="1025"
     inkscape:window-x="67"
     inkscape:window-y="27"
     inkscape:window-maximized="1"
     showguides="true"
     inkscape:guide-bbox="true" />
  <metadata
     id="metadata5">
    <rdf:RDF>
      <cc:Work
         rdf:about="">
        <dc:format>image/svg+xml</dc:format>
        <dc:type
           rdf:resource="http://purl.org/dc/dcmitype/StillImage" />
        <dc:title></dc:title>
      </cc:Work>
    </rdf:RDF>
  </metadata>
  <g
     inkscape:label="Layer 1"
     inkscape:groupmode="layer"
     id="layer1">
    <g
       id="g889"
       style="fill:#1a1a1a;fill-opacity:1"
       transform="translate(-4.5871764,0.54591207)">
      <g
         aria-label="C"
         id="text835"
         style="font-style:normal;font-weight:normal;font-size:105.833px;line-height:1.25;font-family:sans-serif;fill:#1a1a1a;fill-opacity:1;stroke:none;stroke-width:0.264583">
        <path
           d="m 76.91737,27.204476 v 11.007045 q -5.270979,-4.909245 -11.265427,-7.33803 -5.942771,-2.428785 -12.660686,-2.428785 -13.229125,0 -20.257097,8.113175 -7.027973,8.061498 -7.027973,23.357673 0,15.2445 7.027973,23.357674 7.027972,8.061498 20.257097,8.061498 6.717915,0 12.660686,-2.428784 5.994448,-2.428785 11.265427,-7.338031 v 10.903693 q -5.477684,3.720692 -11.62716,5.581037 -6.0978,1.860346 -12.919068,1.860346 -17.518255,0 -27.595128,-10.696988 -10.076872,-10.748664 -10.076872,-29.300445 0,-18.603457 10.076872,-29.300444 10.076873,-10.748665 27.595128,-10.748665 6.92462,0 13.02242,1.860346 6.149476,1.80867 11.523808,5.477685 z"
           style="font-size:105.833px;fill:#1a1a1a;stroke-width:0.264583;fill-opacity:1"
           id="path882" />
      </g>
      <g
         aria-label="P"
         id="text835-3"
         style="font-style:normal;font-weight:normal;font-size:105.833px;line-height:1.25;font-family:sans-serif;fill:#1a1a1a;fill-opacity:1;stroke:none;stroke-width:0.264583">
        <path
           d="m 44.743946,30.227254 v 28.990387 h 13.12577 c 4.857573,0 8.612717,-1.257456 11.26543,-3.772367 2.652713,-2.514912 3.97907,-6.0978 3.97907,-10.748665 0,-4.616413 -1.326357,-8.182076 -3.97907,-10.696987 -2.652713,-2.514912 -6.407857,-3.772368 -11.26543,-3.772368 z m -7.536005,-7.841738 20.661775,-0.736523 c 8.641678,-0.308047 16.016959,2.746959 20.426666,6.674356 4.44416,3.892945 5.824884,8.828525 5.824884,16.37326 0,7.613637 -2.22208,13.366929 -6.66624,17.259874 -4.409707,3.892946 -10.938143,5.839419 -19.58531,5.839419 H 44.743946 V 98.801664 L 37.401119,97.50828 Z"
           style="font-size:105.833px;fill:#1a1a1a;stroke-width:0.264583;fill-opacity:1"
           id="path879"
           sodipodi:nodetypes="ccsssssccscscscccc" />
      </g>
    </g>
    <text
       xml:space="preserve"
       style="font-style:normal;font-weight:normal;font-size:42.3333px;line-height:1.25;font-family:sans-serif;letter-spacing:5.29167px;fill:#333333;fill-opacity:1;stroke:none;stroke-width:0.264583"
       x="90.667824"
       y="75.307495"
       id="text895"><tspan
         sodipodi:role="line"
         id="tspan893"
         x="90.667824"
         y="75.307495"
         style="font-style:normal;font-variant:normal;font-weight:normal;font-stretch:normal;font-size:42.3333px;font-family:'Liberation Sans';-inkscape-font-specification:'Liberation Sans';fill:#333333;stroke-width:0.264583"
         dx="0"><tspan
           style="fill:#008ae7;fill-opacity:0.823529"
           id="tspan901">Counter</tspan><tspan
           style="fill:#ff0055;fill-opacity:0.823529"
           id="tspan903">Plots</tspan></tspan></text>
    <path
       style="opacity:0.4;fill:#ff0055;fill-opacity:0.823529;fill-rule:evenodd;stroke-width:8.36515;stop-color:#000000"
       d="m 152.41723,170.87333 v -54.59424 l 21.76392,0.0262 c 43.20152,0.052 60.12851,4.29069 71.85785,17.99379 17.56384,20.51939 15.83605,59.40258 -3.41229,76.7923 -13.00338,11.74777 -24.19216,14.31502 -62.54348,14.35054 l -27.666,0.0256 z"
       id="path929"
       transform="scale(0.26458333)" />
    <path
       style="opacity:0.4;fill:#0098ff;fill-opacity:1;fill-rule:evenodd;stroke-width:2.95753;stop-color:#000000"
       d="m 119.00699,328.06255 c -16.57696,-12.44904 -29.1694,-33.47593 -34.573045,-57.73013 -4.787596,-21.48908 -5.674009,-47.22771 -2.424043,-70.38661 4.515494,-32.17692 17.413672,-56.54002 38.108228,-71.98184 l 2.85482,-2.1302 0.38881,98.75423 c 0.21385,54.31483 0.33122,100.57459 0.26084,102.79947 l -0.12798,4.04523 z"
       id="path927"
       transform="scale(0.26458333)" />
  </g>
</svg>
